<mxfile host="app.diagrams.net" agent="Mozilla/5.0 (Macintosh; Intel Mac OS X 10_15_7) AppleWebKit/537.36 (KHTML, like Gecko) Chrome/135.0.0.0 Safari/537.36" version="26.2.14">
  <diagram name="Page-1" id="YZ1g8qAKaVy5-aBOCUtx">
    <mxGraphModel dx="860" dy="565" grid="1" gridSize="10" guides="1" tooltips="1" connect="1" arrows="1" fold="1" page="1" pageScale="1" pageWidth="850" pageHeight="1100" math="0" shadow="0">
      <root>
        <mxCell id="0" />
        <mxCell id="1" parent="0" />
        <mxCell id="TQT2IyQf8Vpc7N8f3nj6-9" value="dance" style="swimlane;childLayout=stackLayout;horizontal=1;startSize=30;horizontalStack=0;rounded=1;fontSize=14;fontStyle=0;strokeWidth=2;resizeParent=0;resizeLast=1;shadow=0;dashed=0;align=center;arcSize=4;whiteSpace=wrap;html=1;fillColor=#dae8fc;strokeColor=#6c8ebf;" parent="1" vertex="1">
          <mxGeometry x="40" y="180" width="160" height="120" as="geometry" />
        </mxCell>
        <mxCell id="TQT2IyQf8Vpc7N8f3nj6-10" value="&lt;div&gt;&lt;u style=&quot;background-color: transparent; color: light-dark(rgb(0, 0, 0), rgb(255, 255, 255));&quot;&gt;ID&lt;/u&gt;&lt;/div&gt;&lt;div&gt;&lt;div&gt;dance_name&lt;/div&gt;&lt;div&gt;video&lt;/div&gt;&lt;div&gt;source&lt;/div&gt;&lt;/div&gt;" style="align=left;strokeColor=none;fillColor=none;spacingLeft=4;spacingRight=4;fontSize=12;verticalAlign=top;resizable=0;rotatable=0;part=1;html=1;whiteSpace=wrap;" parent="TQT2IyQf8Vpc7N8f3nj6-9" vertex="1">
          <mxGeometry y="30" width="160" height="90" as="geometry" />
        </mxCell>
        <mxCell id="TQT2IyQf8Vpc7N8f3nj6-33" value="" style="group" parent="1" vertex="1" connectable="0">
          <mxGeometry x="340" y="400" width="550" height="180" as="geometry" />
        </mxCell>
        <mxCell id="TQT2IyQf8Vpc7N8f3nj6-4" value="step" style="swimlane;childLayout=stackLayout;horizontal=1;startSize=40;horizontalStack=0;rounded=1;fontSize=14;fontStyle=0;strokeWidth=2;resizeParent=0;resizeLast=1;shadow=0;dashed=0;align=center;arcSize=4;whiteSpace=wrap;html=1;fillColor=#dae8fc;strokeColor=#6c8ebf;" parent="TQT2IyQf8Vpc7N8f3nj6-33" vertex="1">
          <mxGeometry y="25.714285714285715" width="160" height="154.28571428571428" as="geometry" />
        </mxCell>
        <mxCell id="TQT2IyQf8Vpc7N8f3nj6-5" value="&lt;u&gt;ID&lt;/u&gt;&lt;div&gt;step_name&lt;/div&gt;" style="align=left;strokeColor=none;fillColor=none;spacingLeft=4;spacingRight=4;fontSize=12;verticalAlign=top;resizable=0;rotatable=0;part=1;html=1;whiteSpace=wrap;" parent="TQT2IyQf8Vpc7N8f3nj6-4" vertex="1">
          <mxGeometry y="40" width="160" height="114.28571428571428" as="geometry" />
        </mxCell>
        <mxCell id="TQT2IyQf8Vpc7N8f3nj6-6" value="figure" style="swimlane;childLayout=stackLayout;horizontal=1;startSize=40;horizontalStack=0;rounded=1;fontSize=14;fontStyle=0;strokeWidth=2;resizeParent=0;resizeLast=1;shadow=0;dashed=0;align=center;arcSize=4;whiteSpace=wrap;html=1;fillColor=#dae8fc;strokeColor=#6c8ebf;" parent="TQT2IyQf8Vpc7N8f3nj6-33" vertex="1">
          <mxGeometry x="410" y="25.714285714285715" width="160" height="154.28571428571428" as="geometry" />
        </mxCell>
        <mxCell id="TQT2IyQf8Vpc7N8f3nj6-7" value="&lt;u&gt;ID&lt;/u&gt;&lt;div&gt;&lt;div&gt;name&lt;/div&gt;&lt;div&gt;&lt;span style=&quot;background-color: transparent; color: light-dark(rgb(0, 0, 0), rgb(255, 255, 255));&quot;&gt;roles&lt;/span&gt;&lt;/div&gt;&lt;div&gt;&lt;span style=&quot;background-color: transparent; color: light-dark(rgb(0, 0, 0), rgb(255, 255, 255));&quot;&gt;start_position&amp;nbsp;&lt;/span&gt;&lt;/div&gt;&lt;div&gt;&lt;span style=&quot;background-color: transparent; color: light-dark(rgb(0, 0, 0), rgb(255, 255, 255));&quot;&gt;action&lt;/span&gt;&lt;/div&gt;&lt;div&gt;&lt;span style=&quot;background-color: transparent; color: light-dark(rgb(0, 0, 0), rgb(255, 255, 255));&quot;&gt;end_position&lt;/span&gt;&lt;/div&gt;&lt;div&gt;&lt;span style=&quot;background-color: transparent; color: light-dark(rgb(0, 0, 0), rgb(255, 255, 255));&quot;&gt;duration&lt;/span&gt;&lt;/div&gt;&lt;/div&gt;" style="align=left;strokeColor=none;fillColor=none;spacingLeft=4;spacingRight=4;fontSize=12;verticalAlign=top;resizable=0;rotatable=0;part=1;html=1;whiteSpace=wrap;" parent="TQT2IyQf8Vpc7N8f3nj6-6" vertex="1">
          <mxGeometry y="40" width="160" height="114.28571428571428" as="geometry" />
        </mxCell>
        <mxCell id="TQT2IyQf8Vpc7N8f3nj6-32" value="" style="group" parent="TQT2IyQf8Vpc7N8f3nj6-33" vertex="1" connectable="0">
          <mxGeometry x="160" width="180" height="167.1428571428571" as="geometry" />
        </mxCell>
        <mxCell id="TQT2IyQf8Vpc7N8f3nj6-19" value="" style="edgeStyle=orthogonalEdgeStyle;rounded=0;orthogonalLoop=1;jettySize=auto;html=1;fontFamily=Helvetica;fontSize=14;fontColor=default;fontStyle=0;horizontal=1;" parent="TQT2IyQf8Vpc7N8f3nj6-32" source="TQT2IyQf8Vpc7N8f3nj6-8" edge="1">
          <mxGeometry relative="1" as="geometry">
            <mxPoint y="128.57142857142856" as="targetPoint" />
          </mxGeometry>
        </mxCell>
        <mxCell id="TQT2IyQf8Vpc7N8f3nj6-24" value="" style="edgeStyle=orthogonalEdgeStyle;rounded=0;orthogonalLoop=1;jettySize=auto;html=1;fontFamily=Helvetica;fontSize=14;fontColor=default;fontStyle=0;horizontal=1;endArrow=none;startFill=0;dashed=1;" parent="TQT2IyQf8Vpc7N8f3nj6-32" source="TQT2IyQf8Vpc7N8f3nj6-8" target="TQT2IyQf8Vpc7N8f3nj6-23" edge="1">
          <mxGeometry relative="1" as="geometry" />
        </mxCell>
        <mxCell id="TQT2IyQf8Vpc7N8f3nj6-8" value="figure_step" style="shape=rhombus;perimeter=rhombusPerimeter;whiteSpace=wrap;html=1;align=center;rounded=1;shadow=0;dashed=0;strokeColor=#6c8ebf;strokeWidth=2;verticalAlign=middle;arcSize=4;fontFamily=Helvetica;fontSize=14;fontColor=default;fontStyle=0;horizontal=1;fillColor=#dae8fc;" parent="TQT2IyQf8Vpc7N8f3nj6-32" vertex="1">
          <mxGeometry x="50" y="90" width="130" height="77.14285714285714" as="geometry" />
        </mxCell>
        <mxCell id="TQT2IyQf8Vpc7N8f3nj6-23" value="place" style="whiteSpace=wrap;html=1;fontSize=14;fillColor=#dae8fc;strokeColor=#6c8ebf;rounded=1;shadow=0;dashed=0;strokeWidth=2;arcSize=4;fontStyle=0;horizontal=1;" parent="TQT2IyQf8Vpc7N8f3nj6-32" vertex="1">
          <mxGeometry x="55" width="120" height="38.57142857142857" as="geometry" />
        </mxCell>
        <mxCell id="TQT2IyQf8Vpc7N8f3nj6-20" value="" style="edgeStyle=orthogonalEdgeStyle;rounded=0;orthogonalLoop=1;jettySize=auto;html=1;fontFamily=Helvetica;fontSize=14;fontColor=default;fontStyle=0;horizontal=1;endArrow=none;startFill=0;shape=link;" parent="TQT2IyQf8Vpc7N8f3nj6-33" source="TQT2IyQf8Vpc7N8f3nj6-8" target="TQT2IyQf8Vpc7N8f3nj6-7" edge="1">
          <mxGeometry relative="1" as="geometry" />
        </mxCell>
        <mxCell id="TQT2IyQf8Vpc7N8f3nj6-45" value="" style="group" parent="1" vertex="1" connectable="0">
          <mxGeometry x="350" y="40" width="460" height="320" as="geometry" />
        </mxCell>
        <mxCell id="TQT2IyQf8Vpc7N8f3nj6-1" value="user" style="swimlane;childLayout=stackLayout;horizontal=1;startSize=30;horizontalStack=0;rounded=1;fontSize=14;fontStyle=0;strokeWidth=2;resizeParent=0;resizeLast=1;shadow=0;dashed=0;align=center;arcSize=4;whiteSpace=wrap;html=1;fillColor=#dae8fc;strokeColor=#6c8ebf;" parent="TQT2IyQf8Vpc7N8f3nj6-45" vertex="1">
          <mxGeometry x="300" y="140" width="160" height="130" as="geometry" />
        </mxCell>
        <mxCell id="TQT2IyQf8Vpc7N8f3nj6-2" value="&lt;u&gt;ID&lt;/u&gt;&lt;div&gt;name&lt;/div&gt;&lt;div&gt;email&lt;/div&gt;&lt;div&gt;state&lt;/div&gt;&lt;div&gt;city&lt;/div&gt;" style="align=left;strokeColor=none;fillColor=none;spacingLeft=4;spacingRight=4;fontSize=12;verticalAlign=top;resizable=0;rotatable=0;part=1;html=1;whiteSpace=wrap;" parent="TQT2IyQf8Vpc7N8f3nj6-1" vertex="1">
          <mxGeometry y="30" width="160" height="100" as="geometry" />
        </mxCell>
        <mxCell id="TQT2IyQf8Vpc7N8f3nj6-25" value="" style="edgeStyle=orthogonalEdgeStyle;rounded=0;orthogonalLoop=1;jettySize=auto;html=1;fontFamily=Helvetica;fontSize=14;fontColor=default;fontStyle=0;horizontal=1;endArrow=none;startFill=0;dashed=1;" parent="TQT2IyQf8Vpc7N8f3nj6-45" source="TQT2IyQf8Vpc7N8f3nj6-26" target="TQT2IyQf8Vpc7N8f3nj6-27" edge="1">
          <mxGeometry relative="1" as="geometry" />
        </mxCell>
        <mxCell id="TQT2IyQf8Vpc7N8f3nj6-28" style="edgeStyle=orthogonalEdgeStyle;rounded=0;orthogonalLoop=1;jettySize=auto;html=1;entryX=0.5;entryY=0;entryDx=0;entryDy=0;fontFamily=Helvetica;fontSize=14;fontColor=default;fontStyle=0;horizontal=1;endArrow=none;startFill=0;" parent="TQT2IyQf8Vpc7N8f3nj6-45" source="TQT2IyQf8Vpc7N8f3nj6-26" target="TQT2IyQf8Vpc7N8f3nj6-9" edge="1">
          <mxGeometry relative="1" as="geometry" />
        </mxCell>
        <mxCell id="TQT2IyQf8Vpc7N8f3nj6-38" style="edgeStyle=orthogonalEdgeStyle;rounded=0;orthogonalLoop=1;jettySize=auto;html=1;entryX=0.5;entryY=0;entryDx=0;entryDy=0;fontFamily=Helvetica;fontSize=14;fontColor=default;fontStyle=0;horizontal=1;endArrow=none;startFill=0;" parent="TQT2IyQf8Vpc7N8f3nj6-45" source="TQT2IyQf8Vpc7N8f3nj6-26" target="TQT2IyQf8Vpc7N8f3nj6-1" edge="1">
          <mxGeometry relative="1" as="geometry" />
        </mxCell>
        <mxCell id="TQT2IyQf8Vpc7N8f3nj6-26" value="learning" style="shape=rhombus;perimeter=rhombusPerimeter;whiteSpace=wrap;html=1;align=center;rounded=1;shadow=0;dashed=0;strokeColor=#6c8ebf;strokeWidth=2;verticalAlign=middle;arcSize=4;fontFamily=Helvetica;fontSize=14;fontColor=default;fontStyle=0;horizontal=1;fillColor=#dae8fc;" parent="TQT2IyQf8Vpc7N8f3nj6-45" vertex="1">
          <mxGeometry y="80" width="130" height="60" as="geometry" />
        </mxCell>
        <mxCell id="TQT2IyQf8Vpc7N8f3nj6-27" value="date_added" style="whiteSpace=wrap;html=1;fontSize=14;fillColor=#dae8fc;strokeColor=#6c8ebf;rounded=1;shadow=0;dashed=0;strokeWidth=2;arcSize=4;fontStyle=0;horizontal=1;" parent="TQT2IyQf8Vpc7N8f3nj6-45" vertex="1">
          <mxGeometry x="5" width="120" height="30" as="geometry" />
        </mxCell>
        <mxCell id="TQT2IyQf8Vpc7N8f3nj6-35" value="" style="edgeStyle=orthogonalEdgeStyle;rounded=0;orthogonalLoop=1;jettySize=auto;html=1;fontFamily=Helvetica;fontSize=14;fontColor=default;fontStyle=0;horizontal=1;endArrow=none;startFill=0;dashed=1;" parent="TQT2IyQf8Vpc7N8f3nj6-45" source="TQT2IyQf8Vpc7N8f3nj6-31" target="TQT2IyQf8Vpc7N8f3nj6-34" edge="1">
          <mxGeometry relative="1" as="geometry" />
        </mxCell>
        <mxCell id="TQT2IyQf8Vpc7N8f3nj6-31" value="learned" style="shape=rhombus;perimeter=rhombusPerimeter;whiteSpace=wrap;html=1;align=center;rounded=1;shadow=0;dashed=0;strokeColor=#6c8ebf;strokeWidth=2;verticalAlign=middle;arcSize=4;fontFamily=Helvetica;fontSize=14;fontColor=default;fontStyle=0;horizontal=1;fillColor=#dae8fc;" parent="TQT2IyQf8Vpc7N8f3nj6-45" vertex="1">
          <mxGeometry y="170" width="130" height="60" as="geometry" />
        </mxCell>
        <mxCell id="TQT2IyQf8Vpc7N8f3nj6-34" value="date_added&lt;div&gt;rating&lt;/div&gt;" style="whiteSpace=wrap;html=1;fontSize=14;fillColor=#dae8fc;strokeColor=#6c8ebf;rounded=1;shadow=0;dashed=0;strokeWidth=2;arcSize=4;fontStyle=0;horizontal=1;" parent="TQT2IyQf8Vpc7N8f3nj6-45" vertex="1">
          <mxGeometry x="5" y="260" width="120" height="60" as="geometry" />
        </mxCell>
        <mxCell id="TQT2IyQf8Vpc7N8f3nj6-36" style="edgeStyle=orthogonalEdgeStyle;rounded=0;orthogonalLoop=1;jettySize=auto;html=1;entryX=0.981;entryY=0.333;entryDx=0;entryDy=0;entryPerimeter=0;fontFamily=Helvetica;fontSize=14;fontColor=default;fontStyle=0;horizontal=1;endArrow=none;startFill=0;" parent="TQT2IyQf8Vpc7N8f3nj6-45" source="TQT2IyQf8Vpc7N8f3nj6-31" target="TQT2IyQf8Vpc7N8f3nj6-10" edge="1">
          <mxGeometry relative="1" as="geometry" />
        </mxCell>
        <mxCell id="TQT2IyQf8Vpc7N8f3nj6-41" style="edgeStyle=orthogonalEdgeStyle;rounded=0;orthogonalLoop=1;jettySize=auto;html=1;fontFamily=Helvetica;fontSize=14;fontColor=default;fontStyle=0;horizontal=1;endArrow=none;startFill=0;" parent="TQT2IyQf8Vpc7N8f3nj6-45" source="TQT2IyQf8Vpc7N8f3nj6-31" edge="1">
          <mxGeometry relative="1" as="geometry">
            <mxPoint x="300" y="200" as="targetPoint" />
          </mxGeometry>
        </mxCell>
        <mxCell id="TQT2IyQf8Vpc7N8f3nj6-47" style="edgeStyle=orthogonalEdgeStyle;rounded=0;orthogonalLoop=1;jettySize=auto;html=1;fontFamily=Helvetica;fontSize=14;fontColor=default;fontStyle=0;horizontal=1;endArrow=none;startFill=0;shape=link;" parent="1" source="TQT2IyQf8Vpc7N8f3nj6-10" edge="1">
          <mxGeometry relative="1" as="geometry">
            <mxPoint x="120" y="370" as="targetPoint" />
          </mxGeometry>
        </mxCell>
        <mxCell id="TQT2IyQf8Vpc7N8f3nj6-49" style="edgeStyle=orthogonalEdgeStyle;rounded=0;orthogonalLoop=1;jettySize=auto;html=1;entryX=0;entryY=0.25;entryDx=0;entryDy=0;fontFamily=Helvetica;fontSize=14;fontColor=default;fontStyle=0;horizontal=1;endArrow=none;startFill=0;shape=link;" parent="1" source="TQT2IyQf8Vpc7N8f3nj6-48" target="TQT2IyQf8Vpc7N8f3nj6-5" edge="1">
          <mxGeometry relative="1" as="geometry" />
        </mxCell>
        <mxCell id="TQT2IyQf8Vpc7N8f3nj6-48" value="dance_step" style="shape=rhombus;perimeter=rhombusPerimeter;whiteSpace=wrap;html=1;align=center;rounded=1;shadow=0;dashed=0;strokeColor=#6c8ebf;strokeWidth=2;verticalAlign=middle;arcSize=4;fontFamily=Helvetica;fontSize=14;fontColor=default;fontStyle=0;horizontal=1;fillColor=#dae8fc;" parent="1" vertex="1">
          <mxGeometry x="60" y="370" width="120" height="60" as="geometry" />
        </mxCell>
      </root>
    </mxGraphModel>
  </diagram>
</mxfile>
